<svg width="22" height="21" viewBox="0 0 22 21" fill="none" xmlns="http://www.w3.org/2000/svg">
<g clip-path="url(#clip0_1_167)">
<path d="M13.7183 2.48193V7.71913H18.9646" stroke="#099E71" stroke-width="2" stroke-linecap="round" stroke-linejoin="round"/>
<path d="M19.8325 1.60986L13.7183 7.71347" stroke="#099E71" stroke-width="2" stroke-linecap="round" stroke-linejoin="round"/>
<path d="M18.9578 15.4918V18.1104C18.9588 18.3533 18.909 18.5938 18.8115 18.8163C18.714 19.0389 18.5711 19.2386 18.3918 19.4028C18.2125 19.567 18.0008 19.692 17.7703 19.7698C17.5398 19.8477 17.2955 19.8765 17.0532 19.8547C14.3652 19.5633 11.7831 18.6465 9.51452 17.178C7.40151 15.8383 5.61025 14.0501 4.26822 11.9408C2.7945 9.6662 1.87791 7.0772 1.59261 4.38331C1.57075 4.14197 1.5995 3.89874 1.67703 3.66911C1.75455 3.43948 1.87916 3.2285 2.04291 3.04961C2.20665 2.87073 2.40594 2.72786 2.62806 2.63013C2.85019 2.5324 3.09027 2.48194 3.33301 2.48198H5.95616C6.37926 2.4789 6.78911 2.6292 7.10961 2.90496C7.43011 3.18072 7.63947 3.56321 7.69884 3.98141C7.80933 4.81889 8.0144 5.6412 8.31015 6.43264C8.42759 6.74478 8.45294 7.08398 8.3832 7.41006C8.31347 7.73614 8.15156 8.03544 7.91668 8.27249L6.80697 9.38027C8.05118 11.5659 9.86381 13.3754 12.0533 14.6175L13.163 13.5097C13.4004 13.2752 13.7003 13.1136 14.0269 13.044C14.3535 12.9744 14.6933 12.9997 15.006 13.1169C15.7985 13.412 16.6218 13.6168 17.4604 13.7271C17.8828 13.7879 18.2684 14.001 18.5442 14.3261C18.8201 14.6512 18.9672 15.0659 18.9578 15.4918V15.4918Z" stroke="white" stroke-width="2" stroke-linecap="round" stroke-linejoin="round"/>
</g>
<defs>
<clipPath id="clip0_1_167">
<rect width="21" height="21" fill="white" transform="translate(0.445312)"/>
</clipPath>
</defs>
</svg>
