<svg width="101" height="101" viewBox="0 0 101 101" fill="none" xmlns="http://www.w3.org/2000/svg">
<path d="M50.4451 98.3036C76.9973 98.3036 98.5221 76.7788 98.5221 50.2267C98.5221 23.6745 76.9973 2.14975 50.4451 2.14975C23.893 2.14975 2.36821 23.6745 2.36821 50.2267C2.36821 76.7788 23.893 98.3036 50.4451 98.3036Z" fill="#099E71"/>
<g clip-path="url(#clip0_1_85)">
<path d="M63.8517 28.7641C61.0812 26.3178 57.6916 24.68 54.0534 24.0296C50.4151 23.3792 46.668 23.7412 43.2215 25.076C39.775 26.4109 36.7617 28.6672 34.5107 31.5986C32.2597 34.53 30.8576 38.0237 30.4576 41.6979C30.0887 44.9711 30.5466 48.2846 31.7894 51.335C33.0322 54.3855 35.0203 57.0755 37.5716 59.159C38.4802 59.9002 39.2147 60.8322 39.723 61.8889C40.2312 62.9456 40.5009 64.1011 40.5127 65.2737V76.7384H60.3826V65.5678C60.3804 64.4105 60.6259 63.266 61.1024 62.2114C61.579 61.1567 62.2758 60.2163 63.1458 59.4531C65.4017 57.6058 67.2315 55.2925 68.5097 52.6719C69.788 50.0513 70.4845 47.1853 70.5515 44.2703C70.6184 41.3553 70.0543 38.4603 68.8978 35.7838C67.7412 33.1072 66.0196 30.7124 63.851 28.7634L63.8517 28.7641ZM57.9694 74.3869H42.8627V66.92H58.0311L57.9694 74.3869ZM51.6223 34.9957C53.5039 36.6421 58.2657 41.4663 58.3245 47.4009V47.9891C58.3372 49.8537 57.7382 51.671 56.6194 53.1627C55.4271 54.8183 53.6309 55.9377 51.6194 56.2788L51.6223 34.9957ZM49.2708 56.2796C47.6374 56.0154 46.1324 55.2321 44.9789 54.0457C43.4724 52.4822 42.6293 50.3964 42.626 48.2252V47.6369C42.626 44.6384 43.8605 41.4046 46.2708 38.2891C47.1663 37.0649 48.1698 35.9236 49.2694 34.8788L49.2708 56.2796ZM61.6172 57.6906C59.6105 59.4526 58.3488 61.9116 58.0877 64.5693H51.6172V58.6325C52.9759 58.4665 54.2868 58.0264 55.4705 57.3389C56.6541 56.6513 57.6859 55.7306 58.5032 54.6325C59.9355 52.7157 60.6996 50.3819 60.6782 47.9891V47.4009C60.6179 39.0524 52.6811 32.8237 52.3267 32.5296L50.3274 30.9421L48.3282 32.5884C46.8481 33.8307 45.5076 35.2303 44.3304 36.7627C41.626 40.2921 40.2127 44.0531 40.2127 47.5803V48.1685C40.2246 50.9599 41.3209 53.6373 43.2701 55.6354C44.8654 57.2959 46.9851 58.3545 49.2708 58.6325V64.5707H42.8002C42.6748 63.1867 42.278 61.8408 41.6324 60.6101C40.9868 59.3794 40.1052 58.2879 39.0377 57.3979C36.7774 55.5543 35.0166 53.1721 33.9175 50.4702C32.8183 47.7683 32.4159 44.8335 32.7473 41.9354C33.0752 39.0432 34.1091 36.2759 35.758 33.8772C37.407 31.4786 39.6204 29.5221 42.2033 28.1801C44.7862 26.838 47.6595 26.1516 50.5701 26.1812C53.4807 26.2108 56.3395 26.9556 58.8945 28.3499C61.4496 29.7442 63.6227 31.7454 65.2225 34.1771C66.8223 36.6088 67.7997 39.3966 68.0686 42.2949C68.3376 45.1932 67.8899 48.1132 66.7648 50.7978C65.6398 53.4824 63.8721 55.8492 61.6172 57.6899V57.6906Z" fill="#D9EAE5"/>
</g>
<defs>
<clipPath id="clip0_1_85">
<rect width="40.2235" height="53.0235" fill="white" transform="translate(30.3332 23.7148)"/>
</clipPath>
</defs>
</svg>
