<svg width="101" height="100" viewBox="0 0 101 100" fill="none" xmlns="http://www.w3.org/2000/svg">
<path d="M50.522 98.1538C77.0742 98.1538 98.599 76.629 98.599 50.0769C98.599 23.5247 77.0742 1.99997 50.522 1.99997C23.9699 1.99997 2.4451 23.5247 2.4451 50.0769C2.4451 76.629 23.9699 98.1538 50.522 98.1538Z" fill="#707070"/>
<g clip-path="url(#clip0_1_106)">
<path d="M75.751 52.9649L72.4507 47.7212C71.7232 46.6324 71.2113 45.4105 70.9433 44.1233C70.1012 39.857 67.8514 36.0096 64.5654 33.2161C61.2793 30.4227 57.1533 28.85 52.8683 28.7577C51.786 26.8484 50.3145 25.1959 48.5522 23.9108C46.7899 22.6256 44.7774 21.7376 42.6497 21.306C40.5219 20.8745 38.3278 20.9094 36.2144 21.4085C34.101 21.9075 32.1169 22.8592 30.3952 24.1998C28.6734 25.5404 27.2536 27.2389 26.2309 29.1817C25.2081 31.1244 24.6061 33.2666 24.4649 35.4648C24.3238 37.6629 24.6468 39.8663 25.4125 41.9274C26.1781 43.9886 27.3687 45.8598 28.9045 47.416C30.3397 48.8757 32.0574 50.0177 33.9491 50.7698C34.5776 54.9944 36.4154 58.9382 39.2341 62.1109C40.6779 63.8467 41.4469 66.0584 41.3964 68.3297V74.427C41.3887 75.2449 41.6891 76.0348 42.2361 76.6353C42.7831 77.2358 43.5353 77.6015 44.3391 77.6576L59.0518 79.0017H59.3525C60.1515 78.9971 60.921 78.6945 61.5147 78.1516C61.8401 77.8499 62.0992 77.482 62.2751 77.0718C62.451 76.6616 62.5397 76.2185 62.5355 75.7711V70.6464C62.5435 70.3741 62.6536 70.1152 62.8434 69.9226C63.0331 69.73 63.2882 69.6182 63.5564 69.6101H64.9381C66.6576 69.6071 68.3059 68.9124 69.5217 67.6781C70.7376 66.4437 71.4219 64.7704 71.4248 63.0248V59.1838H72.5059C73.2232 59.1952 73.9295 59.005 74.5469 58.6342C75.1643 58.2635 75.6687 57.7267 76.0043 57.0831C76.34 56.4395 76.4938 55.7143 76.4488 54.9875C76.4038 54.2607 76.1617 53.5607 75.7493 52.9649H75.751ZM31.4268 28.0877C32.5214 26.9717 33.8224 26.0861 35.255 25.4818C36.6877 24.8776 38.2238 24.5665 39.7751 24.5665C41.3265 24.5665 42.8626 24.8776 44.2952 25.4818C45.7278 26.0861 47.0288 26.9717 48.1234 28.0877C49.9121 29.8874 51.0779 32.2271 51.446 34.7562C51.8141 37.2853 51.3646 39.8674 50.1651 42.1153C50.0576 42.3193 49.9917 42.5432 49.9711 42.7737C49.9505 43.0042 49.9758 43.2365 50.0453 43.4568L51.7872 48.7618L46.5616 46.9934C46.1203 46.8805 45.6543 46.9233 45.2402 47.115C42.7477 48.4616 39.8613 48.8535 37.1079 48.2191C34.3545 47.5847 31.9175 45.9664 30.2418 43.6594C28.5661 41.3524 27.7634 38.5106 27.9802 35.6527C28.197 32.7948 29.4188 30.1113 31.4226 28.092L31.4268 28.0877ZM72.928 55.4032C72.8882 55.497 72.8212 55.5764 72.736 55.6308C72.6507 55.6851 72.5512 55.7119 72.4507 55.7075H70.2256C69.9259 55.7074 69.6291 55.7673 69.3522 55.8836C69.0753 56 68.8237 56.1707 68.6118 56.3858C68.3998 56.6009 68.2318 56.8564 68.1171 57.1375C68.0025 57.4186 67.9435 57.7199 67.9436 58.0242V63.0851C67.9403 63.9089 67.6165 64.698 67.0428 65.2804C66.469 65.8629 65.6917 66.1916 64.8803 66.195H63.4986C62.9145 66.1939 62.3359 66.3098 61.796 66.5362C61.2561 66.7626 60.7655 67.0949 60.3524 67.5141C59.9393 67.9334 59.6117 68.4313 59.3886 68.9793C59.1654 69.5273 59.051 70.1146 59.0518 70.7076V75.5858L44.8156 74.3055V68.4513C44.8811 65.3184 43.7902 62.2738 41.7573 59.9158C39.7618 57.6387 38.358 54.8918 37.6732 51.9243C40.5447 52.2991 43.4619 51.8337 46.0818 50.5828L51.0067 52.2287C51.5741 52.4333 52.1875 52.4673 52.7735 52.3268C53.3595 52.1862 53.8931 51.8771 54.3103 51.4363C54.7273 51.0014 55.0202 50.4597 55.1576 49.869C55.2951 49.2784 55.272 48.6609 55.0908 48.0825L53.4696 43.0827C54.9828 39.7839 55.3018 36.049 54.3706 32.5349C57.5732 32.9062 60.5774 34.2989 62.9514 36.5126C65.3253 38.7263 66.9468 41.6472 67.5827 44.8553C67.9199 46.5603 68.5942 48.1782 69.5649 49.6111L72.8694 54.8574C72.934 54.9308 72.9744 55.0228 72.9849 55.1207C72.9954 55.2186 72.9755 55.3173 72.928 55.4032Z" fill="white"/>
<path d="M34.8536 34.6492C36.0995 34.6492 37.1096 33.6238 37.1096 32.3589C37.1096 31.094 36.0995 30.0686 34.8536 30.0686C33.6076 30.0686 32.5975 31.094 32.5975 32.3589C32.5975 33.6238 33.6076 34.6492 34.8536 34.6492Z" fill="white"/>
<path d="M44.5585 34.6492C45.8045 34.6492 46.8145 33.6238 46.8145 32.3589C46.8145 31.094 45.8045 30.0686 44.5585 30.0686C43.3125 30.0686 42.3025 31.094 42.3025 32.3589C42.3025 33.6238 43.3125 34.6492 44.5585 34.6492Z" fill="white"/>
<path d="M44.705 38.7538C44.7067 38.7071 44.6988 38.6606 44.682 38.6171C44.6651 38.5737 44.6397 38.5342 44.6071 38.5012C44.5746 38.4682 44.5357 38.4423 44.4929 38.4252C44.4501 38.4081 44.4043 38.4001 44.3583 38.4018H34.8711C34.8252 38.4001 34.7794 38.4081 34.7365 38.4252C34.6937 38.4423 34.6549 38.4682 34.6223 38.5012C34.5898 38.5342 34.5643 38.5737 34.5475 38.6171C34.5307 38.6606 34.5228 38.7071 34.5244 38.7538C34.5264 40.1236 35.0633 41.4367 36.0174 42.4053C36.9715 43.3739 38.265 43.919 39.6143 43.921C40.2839 43.9251 40.9476 43.7942 41.567 43.5359C42.1864 43.2777 42.7491 42.8973 43.2226 42.4167C43.6961 41.936 44.071 41.3648 44.3254 40.736C44.5799 40.1073 44.7089 39.4335 44.705 38.7538Z" fill="white"/>
</g>
<defs>
<clipPath id="clip0_1_106">
<rect width="52" height="58" fill="white" transform="translate(24.4452 21)"/>
</clipPath>
</defs>
</svg>
