<svg width="296" height="385" viewBox="0 0 296 385" fill="none" xmlns="http://www.w3.org/2000/svg">
<path d="M192.977 0.0317383C154.91 0.0317383 117.699 11.3197 86.0476 32.4684C54.3964 53.6171 29.7271 83.6765 15.1596 118.846C0.592176 154.014 -3.21933 192.713 4.2071 230.049C11.6335 267.384 29.9644 301.678 56.8815 328.595C83.7987 355.513 118.093 373.843 155.428 381.27C192.764 388.696 231.463 384.885 266.631 370.317C301.8 355.75 331.86 331.081 353.008 299.43C374.157 267.778 385.445 230.567 385.445 192.5C385.388 141.472 365.092 92.5499 329.01 56.4674C292.927 20.385 244.005 0.088906 192.977 0.0317383ZM177.028 237.829C182.905 239.034 182.359 247.492 178.648 251.374C175.391 246.963 177.676 242.291 177.034 237.829H177.028ZM188.583 254C189.822 256.027 190.573 258.315 190.778 260.682C190.982 263.049 190.633 265.431 189.76 267.641C184.463 269.255 184.065 257.586 188.589 254.005L188.583 254ZM192.272 236.812C191.3 231.844 206.59 226.774 205.527 232.23C202.174 246.417 196.99 257.012 192.278 236.806L192.272 236.812ZM315.431 321.007C281.646 316.898 233.867 312.686 201.463 312.152C199.914 304.672 200.616 296.901 203.481 289.82C203.86 286.741 204.487 283.698 205.357 280.72C206.255 276.778 207.518 272.928 209.131 269.221C209.401 268.219 209.782 267.251 210.267 266.334C210.52 265.875 210.801 265.433 211.109 265.009C214.559 259.553 225.887 249.47 231.002 250.231C240.097 247.139 249.611 244.797 256.063 241.836C260.331 240.768 259.535 240.177 260.075 244.587C269.062 247.071 273.149 235.379 280.43 241.745C289.814 257.018 290.558 244.388 302.728 247.702C309.423 239.324 319.211 253.386 321.274 244.019C323.315 239.028 325.861 234.987 322.979 229.61C300.931 218.049 334.734 227.985 318.029 213.422C318.211 206.659 341.708 212.888 326.731 201.52C326.459 201.234 326.264 200.883 326.166 200.501C326.069 200.118 326.07 199.717 326.172 199.336C326.273 198.954 326.471 198.605 326.746 198.322C327.021 198.039 327.364 197.831 327.742 197.718C331.119 197.24 328.066 194.097 329.965 192.653C336.41 189.243 329.351 189.021 330.306 184.804C337.161 178.699 313.038 176.471 328.373 170.668C329.374 169.474 327.771 167.57 326.475 167.496C307.82 167.127 338.695 160.397 326.736 154.122C311.845 152.752 325.469 136.86 314.516 136.411C308.264 137.4 311.219 132.478 303.688 135.917C294.708 128.903 306.883 126.584 296.703 117.228C296.237 100.824 288.501 120.638 280.003 107.98C270.67 103.592 281.987 102.171 275.604 99.6818C260.183 101.995 273.512 95.1063 264.236 92.9975C260.581 93.4125 259.871 90.6729 259.041 88.1606C253.812 81.7265 247.105 93.0771 239.665 79.9132C235.038 78.2154 230.043 77.7837 225.194 78.6627C223.712 77.4821 221.998 76.6256 220.164 76.1488C218.33 75.672 216.417 75.5854 214.548 75.8947C213.178 80.0837 207.653 75.8038 206.272 73.5018C201.503 65.9308 198.553 80.5158 194.824 71.5466C175.272 91.9575 164.467 55.6316 157.044 85.4835C152.798 91.5993 145.107 77.1849 140.231 82.3402C137.565 87.4557 123.474 75.5764 131.278 92.3382C115.699 101.245 145.21 108.384 126.038 109.47C119.717 112.391 120.774 104.184 117.813 104.178C113.203 106.73 97.806 105.19 104.985 115.114C105.553 115.648 107.184 119.814 104.524 118.888C95.1286 117.518 100.887 118.746 99.4088 124.316C99.1019 128.71 95.2483 121.309 94.0604 122.52C93.6341 131.523 86.1823 118.768 86.1028 126.231C88.2001 135.985 91.9289 143.249 79.8506 140.788C76.5937 143.8 75.3431 144.766 80.1517 147.211C48.373 142.749 89.9507 165.177 68.0563 163.074C52.8689 171.327 80.5098 175.784 78.6739 181.951C77.0085 182.593 75.7864 178.478 73.996 181.922C71.3019 182.314 63.6115 174.442 63.2875 182.258C65.9249 189.806 51.9596 184.77 51.2889 191.863C52.7439 196.069 60.44 196.979 59.6499 203.544C61.986 210.08 75.957 203.396 65.6237 212.763C64.5608 220.721 74.2687 209.165 72.0463 220.686C75.9057 215.821 81.2883 220.505 75.2293 222.124C63.026 221.556 59.3656 234.8 70.4663 239.176C73.9505 237.858 72.9387 241.853 73.4958 243.882C75.0134 256.717 88.9673 238.267 90.7407 245.457C87.3304 247.73 91.1271 254.551 93.0824 252.027C93.6053 250.226 94.7423 246.514 97.2319 246.912C99.2781 251.345 97.9366 256.768 105.348 256.279C108.759 256.654 106.946 246.542 108.798 244.144C122.258 230.616 138.747 244.144 128.999 243.956C128.931 249.578 147.807 241.876 150.598 250.805C157.419 264.242 178.449 267.328 174.806 285.659C175.769 294.518 175.25 303.475 173.271 312.163C145.124 312.499 100.887 316.068 68.8464 319.427C43.5211 294.676 26.1704 262.922 19.0212 228.24C11.8719 193.558 15.2503 157.53 28.7229 124.782C42.1955 92.0332 65.1475 64.0583 94.6328 44.4474C124.118 24.8366 158.791 14.4847 194.202 14.7206C229.613 14.9564 264.145 25.7691 293.366 45.7709C322.588 65.7728 345.165 94.0511 358.2 126.976C371.236 159.901 374.134 195.97 366.523 230.554C358.913 265.138 341.141 296.658 315.488 321.07L315.431 321.007ZM218.958 234.873C217.532 236.107 214.053 244.138 213.053 240.688C212.234 234.788 221.078 225.586 218.964 234.868L218.958 234.873ZM237.181 242.081C234.947 241.404 225.063 244.849 214.639 250.334C224.676 239.858 232.133 238.392 237.186 242.069L237.181 242.081ZM160.187 231.344C165.035 230.878 169.105 240.438 167.36 242.444C164.234 241.501 157.839 235.322 160.192 231.332L160.187 231.344ZM158.578 248.964C155.27 244.258 149.234 238.733 148.495 233.271C159.669 240.864 175.817 264.901 158.578 248.935V248.964ZM143.044 241.387C140.87 242.071 138.522 241.946 136.433 241.035C134.344 240.125 132.655 238.489 131.676 236.431C135.915 236.756 139.923 238.491 143.061 241.359L143.044 241.387Z" fill="#099E71"/>
</svg>
