<svg width="299" height="291" viewBox="0 0 299 291" fill="none" xmlns="http://www.w3.org/2000/svg">
<g opacity="0.2" clip-path="url(#clip0_1_235)">
<path d="M107.014 75.7403L-12.0381 174.037V280.128C-12.0381 281.488 -11.7708 282.835 -11.2516 284.092C-10.7324 285.348 -9.97143 286.49 -9.01206 287.452C-8.0527 288.413 -6.91377 289.176 -5.6603 289.697C-4.40683 290.217 -3.06337 290.485 -1.70662 290.485L70.6531 290.298C73.3842 290.284 75.9987 289.187 77.9251 287.246C79.8514 285.305 80.9328 282.678 80.9328 279.94V217.984C80.9328 215.237 82.0212 212.603 83.9588 210.661C85.8963 208.718 88.5241 207.627 91.2642 207.627H132.591C135.331 207.627 137.958 208.718 139.896 210.661C141.834 212.603 142.922 215.237 142.922 217.984V279.895C142.918 281.258 143.182 282.608 143.699 283.869C144.216 285.129 144.977 286.274 145.937 287.24C146.896 288.205 148.037 288.971 149.292 289.493C150.548 290.016 151.894 290.285 153.253 290.285L225.587 290.485C226.944 290.485 228.287 290.217 229.541 289.697C230.794 289.176 231.933 288.413 232.893 287.452C233.852 286.49 234.613 285.348 235.132 284.092C235.651 282.835 235.919 281.488 235.919 280.128V173.966L116.893 75.7403C115.494 74.6096 113.751 73.993 111.954 73.993C110.156 73.993 108.413 74.6096 107.014 75.7403V75.7403ZM295.069 142.551L241.086 97.9433V8.2818C241.086 7.26163 240.886 6.25146 240.496 5.30898C240.107 4.36649 239.536 3.51015 238.816 2.78885C238.097 2.06756 237.242 1.49542 236.302 1.10513C235.362 0.714838 234.354 0.514025 233.336 0.51416H197.175C195.12 0.514433 193.149 1.33291 191.696 2.78958C190.243 4.24625 189.427 6.22182 189.427 8.2818V55.2846L131.615 7.60201C126.068 3.02521 119.106 0.522827 111.921 0.522827C104.736 0.522827 97.7744 3.02521 92.2265 7.60201L-71.2247 142.551C-72.0093 143.201 -72.6584 144 -73.135 144.902C-73.6115 145.803 -73.9062 146.79 -74.0021 147.806C-74.0981 148.822 -73.9934 149.847 -73.6941 150.822C-73.3948 151.798 -72.9067 152.705 -72.2577 153.491L-55.7926 173.558C-55.1454 174.347 -54.3493 175 -53.4499 175.48C-52.5506 175.96 -51.5656 176.258 -50.5513 176.356C-49.5371 176.454 -48.5135 176.35 -47.5392 176.051C-46.5649 175.752 -45.659 175.263 -44.8734 174.613L107.013 49.1974C108.413 48.0667 110.156 47.4501 111.953 47.4501C113.75 47.4501 115.494 48.0667 116.893 49.1974L268.786 174.613C269.57 175.263 270.475 175.753 271.448 176.053C272.421 176.353 273.443 176.458 274.456 176.362C275.47 176.265 276.454 175.97 277.354 175.492C278.253 175.015 279.05 174.364 279.699 173.577L296.164 153.51C296.812 152.72 297.298 151.808 297.594 150.829C297.89 149.849 297.989 148.82 297.887 147.802C297.785 146.783 297.484 145.795 297 144.894C296.515 143.993 295.858 143.197 295.066 142.551H295.069Z" stroke="#01383C" stroke-width="2"/>
</g>
<defs>
<clipPath id="clip0_1_235">
<rect width="373" height="291" fill="white" transform="translate(-74.5547)"/>
</clipPath>
</defs>
</svg>
