<svg width="80" height="80" viewBox="0 0 80 80" fill="none" xmlns="http://www.w3.org/2000/svg">
<g clip-path="url(#clip0_1_58)">
<path d="M39.9449 0.5C32.1324 0.5 24.4954 2.81665 17.9995 7.15703C11.5037 11.4974 6.4408 17.6666 3.45109 24.8844C0.461389 32.1021 -0.320853 40.0444 1.20329 47.7068C2.72742 55.3691 6.48949 62.4074 12.0137 67.9317C17.538 73.4559 24.5763 77.218 32.2387 78.7422C39.9011 80.2663 47.8433 79.484 55.0611 76.4943C62.2789 73.5046 68.448 68.4418 72.7884 61.9459C77.1288 55.4501 79.4454 47.8131 79.4454 40.0006C79.4337 29.528 75.2683 19.4877 67.8631 12.0824C60.4578 4.67714 50.4175 0.511733 39.9449 0.5ZM36.6716 49.3036C37.8778 49.5509 37.7658 51.2866 37.0041 52.0834C36.3357 51.1781 36.8046 50.2193 36.6728 49.3036H36.6716ZM39.0431 52.6223C39.2974 53.0384 39.4516 53.5079 39.4935 53.9937C39.5354 54.4795 39.4639 54.9684 39.2846 55.4219C38.1974 55.7532 38.1158 53.3583 39.0443 52.6234L39.0431 52.6223ZM39.8003 49.0947C39.6008 48.0752 42.7387 47.0347 42.5205 48.1545C41.8323 51.0661 40.7684 53.2405 39.8014 49.0936L39.8003 49.0947ZM65.0763 66.3744C58.1425 65.531 48.3368 64.6666 41.6865 64.5569C41.3686 63.0218 41.5127 61.427 42.1006 59.9737C42.1784 59.3418 42.3071 58.7172 42.4856 58.1061C42.6698 57.2971 42.9291 56.507 43.2601 55.7462C43.3156 55.5406 43.3938 55.3418 43.4934 55.1536C43.5453 55.0595 43.603 54.9688 43.666 54.8818C44.3741 53.762 46.699 51.6926 47.7489 51.8489C49.6153 51.2143 51.568 50.7337 52.892 50.1259C53.7681 49.9066 53.6048 49.7853 53.7156 50.6905C55.5598 51.2003 56.3986 48.8008 57.8929 50.1073C59.8189 53.2417 59.9716 50.6497 62.4692 51.3298C63.8433 49.6104 65.8521 52.4963 66.2755 50.5739C66.6943 49.5497 67.2169 48.7203 66.6254 47.6168C62.1005 45.2441 69.0378 47.2831 65.6094 44.2945C65.6468 42.9064 70.4691 44.1849 67.3954 41.8519C67.3395 41.7932 67.2996 41.7211 67.2795 41.6426C67.2595 41.5641 67.2598 41.4818 67.2807 41.4035C67.3015 41.3252 67.3421 41.2536 67.3985 41.1954C67.4549 41.1373 67.5254 41.0946 67.603 41.0714C68.2959 40.9735 67.6695 40.3284 68.0591 40.0321C69.3819 39.3322 67.9331 39.2867 68.1291 38.4211C69.5359 37.1683 64.5852 36.711 67.7325 35.52C67.9378 35.275 67.6088 34.8842 67.3428 34.8691C63.5143 34.7932 69.8509 33.4121 67.3965 32.1242C64.3402 31.8431 67.1364 28.5815 64.8885 28.4894C63.6053 28.6924 64.2119 27.6821 62.6663 28.3879C60.8232 26.9484 63.3219 26.4725 61.2326 24.5524C61.137 21.1858 59.5494 25.2523 57.8054 22.6545C55.89 21.7539 58.2125 21.4623 56.9025 20.9513C53.7377 21.4261 56.4732 20.0123 54.5695 19.5795C53.8194 19.6647 53.6736 19.1024 53.5033 18.5868C52.4301 17.2663 51.0536 19.5959 49.5266 16.8942C48.5771 16.5458 47.5519 16.4572 46.5567 16.6376C46.2526 16.3953 45.9009 16.2195 45.5245 16.1216C45.1482 16.0238 44.7555 16.006 44.3718 16.0695C44.0907 16.9292 42.9568 16.0508 42.6733 15.5784C41.6946 14.0246 41.0892 17.0179 40.324 15.1771C36.3112 19.3661 34.0937 11.9109 32.5702 18.0374C31.6988 19.2926 30.1205 16.3343 29.1196 17.3923C28.5725 18.4422 25.6807 16.0042 27.2823 19.4442C24.0849 21.2721 30.1415 22.7373 26.2068 22.9601C24.9097 23.5597 25.1266 21.8752 24.5188 21.8741C23.5728 22.3978 20.4128 22.0817 21.8861 24.1185C22.0027 24.2281 22.3374 25.0832 21.7915 24.893C19.8633 24.6119 21.045 24.8639 20.7417 26.007C20.6787 26.9088 19.8878 25.3899 19.644 25.6384C19.5565 27.4862 18.0272 24.8685 18.0109 26.4002C18.4413 28.4019 19.2066 29.8927 16.7277 29.3876C16.0593 30.0059 15.8027 30.2042 16.7895 30.7058C10.2675 29.79 18.8006 34.3931 14.3072 33.9615C11.1902 35.6553 16.863 36.5698 16.4862 37.8355C16.1444 37.9673 15.8936 37.1228 15.5262 37.8297C14.9733 37.9102 13.395 36.2946 13.3285 37.8985C13.8697 39.4477 11.0036 38.4141 10.866 39.8699C11.1646 40.7332 12.7441 40.9198 12.5819 42.2671C13.0614 43.6086 15.9286 42.2368 13.8079 44.1592C13.5898 45.7923 15.5822 43.4208 15.126 45.7853C15.9181 44.7868 17.0228 45.748 15.7793 46.0805C13.2748 45.9638 12.5236 48.6818 14.8018 49.58C15.5169 49.3094 15.3092 50.1295 15.4235 50.5459C15.735 53.1799 18.5988 49.3934 18.9627 50.869C18.2628 51.3356 19.042 52.7354 19.4433 52.2175C19.5506 51.8477 19.784 51.086 20.2949 51.1676C20.7149 52.0775 20.4395 53.1904 21.9607 53.0901C22.6606 53.1671 22.2885 51.0918 22.6688 50.5995C25.4311 47.8232 28.8151 50.5996 26.8146 50.5611C26.8006 51.7148 30.6746 50.1341 31.2473 51.9667C32.6471 54.7243 36.9633 55.3578 36.2155 59.1198C36.4132 60.9378 36.3067 62.7762 35.9006 64.5593C30.124 64.6281 21.045 65.3606 14.4693 66.0501C9.27177 60.9704 5.71086 54.4534 4.24361 47.3355C2.77635 40.2176 3.4697 32.8236 6.23471 26.1026C8.99971 19.3816 13.7102 13.6403 19.7615 9.61551C25.8128 5.59074 32.9289 3.46622 40.1963 3.51462C47.4636 3.56302 54.5508 5.78212 60.5479 9.88713C66.5451 13.9921 71.1787 19.7958 73.8539 26.553C76.5292 33.3102 77.124 40.7128 75.5621 47.8105C74.0001 54.9082 70.3527 61.3772 65.088 66.3872L65.0763 66.3744ZM45.2771 48.6969C44.9843 48.9501 44.2704 50.5984 44.065 49.8903C43.8971 48.6795 45.7121 46.7909 45.2782 48.6958L45.2771 48.6969ZM49.0169 50.1761C48.5585 50.0373 46.5299 50.7442 44.3905 51.8699C46.4506 49.72 47.981 49.419 49.018 50.1738L49.0169 50.1761ZM33.2152 47.9725C34.2103 47.8769 35.0455 49.839 34.6874 50.2507C34.0458 50.0571 32.7334 48.7891 33.2164 47.9702L33.2152 47.9725ZM32.8851 51.5887C32.2062 50.6229 30.9674 49.489 30.8157 48.368C33.1091 49.9265 36.4231 54.8597 32.8851 51.5829V51.5887ZM29.697 50.0338C29.2509 50.1742 28.769 50.1485 28.3402 49.9616C27.9115 49.7747 27.5648 49.4391 27.364 49.0166C28.234 49.0833 29.0565 49.4393 29.7005 50.028L29.697 50.0338Z" fill="#099E71"/>
</g>
<defs>
<clipPath id="clip0_1_58">
<rect width="79" height="79" fill="white" transform="translate(0.445312 0.5)"/>
</clipPath>
</defs>
</svg>
