<svg width="39" height="216" viewBox="0 0 39 216" fill="none" xmlns="http://www.w3.org/2000/svg">
<path d="M23.1919 20.4738L23.6294 17.5988H20.8481V15.7238C20.8481 14.9113 21.2231 14.1613 22.4731 14.1613H23.7544V11.6925C23.7544 11.6925 22.5981 11.4738 21.5044 11.4738C19.2231 11.4738 17.7231 12.88 17.7231 15.38V17.5988H15.1606V20.4738H17.7231V27.4738H20.8481V20.4738H23.1919Z" fill="#099E71"/>
<circle cx="19.4732" cy="19.4737" r="18.5279" stroke="#099E71"/>
<path d="M19.4731 74.7437C17.4731 74.7437 15.8794 76.3687 15.8794 78.3374C15.8794 80.3374 17.4731 81.9312 19.4731 81.9312C21.4419 81.9312 23.0669 80.3374 23.0669 78.3374C23.0669 76.3687 21.4419 74.7437 19.4731 74.7437ZM19.4731 80.6812C18.1919 80.6812 17.1294 79.6499 17.1294 78.3374C17.1294 77.0562 18.1606 76.0249 19.4731 76.0249C20.7544 76.0249 21.7856 77.0562 21.7856 78.3374C21.7856 79.6499 20.7544 80.6812 19.4731 80.6812ZM24.0356 74.6187C24.0356 74.1499 23.6606 73.7749 23.1919 73.7749C22.7231 73.7749 22.3481 74.1499 22.3481 74.6187C22.3481 75.0874 22.7231 75.4624 23.1919 75.4624C23.6606 75.4624 24.0356 75.0874 24.0356 74.6187ZM26.4106 75.4624C26.3481 74.3374 26.0981 73.3374 25.2856 72.5249C24.4731 71.7124 23.4731 71.4624 22.3481 71.3999C21.1919 71.3374 17.7231 71.3374 16.5669 71.3999C15.4419 71.4624 14.4731 71.7124 13.6294 72.5249C12.8169 73.3374 12.5669 74.3374 12.5044 75.4624C12.4419 76.6187 12.4419 80.0874 12.5044 81.2437C12.5669 82.3687 12.8169 83.3374 13.6294 84.1812C14.4731 84.9937 15.4419 85.2437 16.5669 85.3062C17.7231 85.3687 21.1919 85.3687 22.3481 85.3062C23.4731 85.2437 24.4731 84.9937 25.2856 84.1812C26.0981 83.3374 26.3481 82.3687 26.4106 81.2437C26.4731 80.0874 26.4731 76.6187 26.4106 75.4624ZM24.9106 82.4624C24.6919 83.0874 24.1919 83.5562 23.5981 83.8062C22.6606 84.1812 20.4731 84.0874 19.4731 84.0874C18.4419 84.0874 16.2544 84.1812 15.3481 83.8062C14.7231 83.5562 14.2544 83.0874 14.0044 82.4624C13.6294 81.5562 13.7231 79.3687 13.7231 78.3374C13.7231 77.3374 13.6294 75.1499 14.0044 74.2124C14.2544 73.6187 14.7231 73.1499 15.3481 72.8999C16.2544 72.5249 18.4419 72.6187 19.4731 72.6187C20.4731 72.6187 22.6606 72.5249 23.5981 72.8999C24.1919 73.1187 24.6606 73.6187 24.9106 74.2124C25.2856 75.1499 25.1919 77.3374 25.1919 78.3374C25.1919 79.3687 25.2856 81.5562 24.9106 82.4624Z" fill="#099E71"/>
<circle cx="19.4732" cy="78.3375" r="18.5279" stroke="#099E71"/>
<path d="M25.8169 133.951C26.4419 133.482 27.0044 132.92 27.4419 132.264C26.8794 132.514 26.2231 132.701 25.5669 132.764C26.2544 132.357 26.7544 131.732 27.0044 130.951C26.3794 131.326 25.6606 131.607 24.9419 131.764C24.3169 131.107 23.4731 130.732 22.5356 130.732C20.7231 130.732 19.2544 132.201 19.2544 134.014C19.2544 134.264 19.2856 134.514 19.3481 134.764C16.6294 134.607 14.1919 133.295 12.5669 131.326C12.2856 131.795 12.1294 132.357 12.1294 132.982C12.1294 134.107 12.6919 135.107 13.5981 135.701C13.0669 135.67 12.5356 135.545 12.0981 135.295V135.326C12.0981 136.92 13.2231 138.232 14.7231 138.545C14.4731 138.607 14.1606 138.67 13.8794 138.67C13.6606 138.67 13.4731 138.639 13.2544 138.607C13.6606 139.92 14.8794 140.857 16.3169 140.889C15.1919 141.764 13.7856 142.295 12.2544 142.295C11.9731 142.295 11.7231 142.264 11.4731 142.232C12.9106 143.17 14.6294 143.701 16.5044 143.701C22.5356 143.701 25.8169 138.732 25.8169 134.389C25.8169 134.232 25.8169 134.107 25.8169 133.951Z" fill="#099E71"/>
<circle cx="19.4732" cy="137.201" r="18.5279" stroke="#099E71"/>
<circle cx="19.4732" cy="196.065" r="18.5279" stroke="#099E71"/>
<path d="M15.5983 202.065V192.721H12.692V202.065H15.5983ZM14.1295 191.471C15.067 191.471 15.817 190.69 15.817 189.752C15.817 188.846 15.067 188.096 14.1295 188.096C13.2233 188.096 12.4733 188.846 12.4733 189.752C12.4733 190.69 13.2233 191.471 14.1295 191.471ZM26.442 202.065H26.4733V196.94C26.4733 194.44 25.9108 192.502 22.9733 192.502C21.567 192.502 20.6295 193.284 20.2233 194.002H20.192V192.721H17.4108V202.065H20.317V197.44C20.317 196.221 20.5358 195.065 22.0358 195.065C23.5358 195.065 23.567 196.44 23.567 197.534V202.065H26.442Z" fill="#099E71"/>
</svg>
