<svg width="121" height="120" viewBox="0 0 121 120" fill="none" xmlns="http://www.w3.org/2000/svg">
<g clip-path="url(#clip0_1_63)">
<path d="M60.1497 0.408691C48.2828 0.408691 36.6824 3.89831 26.8154 10.4363C16.9485 16.9742 9.25814 26.2668 4.71688 37.139C0.175625 48.0112 -1.01258 59.9747 1.30254 71.5166C3.61765 83.0584 9.3321 93.6603 17.7232 101.982C26.1144 110.303 36.8054 115.97 48.4442 118.265C60.0831 120.561 72.1471 119.383 83.1107 114.88C94.0742 110.376 103.445 102.75 110.038 92.9651C116.631 83.1804 120.15 71.6767 120.15 59.9087C120.132 44.1338 113.805 29.01 102.556 17.8554C91.308 6.70083 76.0572 0.426408 60.1497 0.408691V0.408691ZM83.9997 61.9912L49.0002 84.3037C48.6227 84.5438 48.1871 84.6788 47.7389 84.6946C47.2908 84.7104 46.8466 84.6064 46.4529 84.3934C46.0592 84.1805 45.7305 83.8665 45.5012 83.4843C45.2719 83.1022 45.1505 82.6659 45.1497 82.2212V37.5962C45.1503 37.1513 45.2717 36.7147 45.5011 36.3323C45.7304 35.9499 46.0593 35.6358 46.4533 35.4228C46.8472 35.2098 47.2916 35.1059 47.74 35.1219C48.1884 35.1379 48.6242 35.2732 49.0017 35.5137L83.9997 57.8262C84.3507 58.0508 84.6395 58.3591 84.8394 58.7229C85.0393 59.0867 85.144 59.4944 85.144 59.9087C85.144 60.323 85.0393 60.7307 84.8394 61.0945C84.6395 61.4583 84.3507 61.7666 83.9997 61.9912Z" fill="#099E71"/>
</g>
<defs>
<clipPath id="clip0_1_63">
<rect width="120" height="119" fill="white" transform="translate(0.149658 0.408691)"/>
</clipPath>
</defs>
</svg>
